<?xml version="1.0" encoding="UTF-8"?>
<svg id="Layer_2" data-name="Layer 2" xmlns="http://www.w3.org/2000/svg" xmlns:xlink="http://www.w3.org/1999/xlink" viewBox="0 0 498.34 635.11">
  <defs>
    <style>
      .cls-1 {
        fill: url(#linear-gradient);
      }
    </style>
    <linearGradient id="linear-gradient" x1="0" y1="317.55" x2="498.34" y2="317.55" gradientUnits="userSpaceOnUse">
      <stop offset="0" stop-color="#af00a6"/>
      <stop offset=".11" stop-color="#aa00b2"/>
      <stop offset=".5" stop-color="#9c00dc"/>
      <stop offset=".81" stop-color="#9300f5"/>
      <stop offset="1" stop-color="#9000ff"/>
    </linearGradient>
  </defs>
  <g id="Layer_2-2" data-name="Layer 2">
    <path class="cls-1" d="M495.49,205.33h0c-6.28,11.73-21.01,16.19-32.74,9.92l-28.95-15.49c-11.73-6.28-16.19-21.01-9.92-32.74h0c6.28-11.73,21.01-16.19,32.74-9.92l28.95,15.49c11.73,6.28,16.19,21.01,9.92,32.74ZM454.6,230.48l-28.95-15.49c-11.73-6.28-26.46-1.81-32.74,9.92h0c-6.28,11.73-1.81,26.46,9.92,32.74l28.95,15.49c11.73,6.28,26.46,1.81,32.74-9.92h0c6.28-11.73,1.81-26.46-9.92-32.74ZM220.52,85.64l28.95,15.49c11.73,6.28,26.46,1.81,32.74-9.92h0c6.28-11.73,1.81-26.46-9.92-32.74l-28.95-15.49c-11.73-6.28-26.46-1.81-32.74,9.92h0c-6.28,11.73-1.81,26.46,9.92,32.74ZM218.49,159.02c11.73,6.28,26.46,1.81,32.74-9.92h0c6.28-11.73,1.81-26.46-9.92-32.74l-28.95-15.49c-11.73-6.28-26.46-1.81-32.74,9.92h0c-6.28,11.73-1.81,26.46,9.92,32.74l28.95,15.49ZM360.49,412.26c-33.95,63.45-110,89.91-175.2,63.35l-67.9,126.15c-.03.05-.06.1-.09.14-.05.1-.1.2-.15.3-16.22,30.31-53.94,41.74-84.26,25.52-30.31-16.22-41.74-53.94-25.52-84.26,16.22-30.31,53.94-41.74,84.26-25.52,10.64,5.7,18.95,14.05,24.56,23.79l43.21-80c-58.27-39.5-78.46-117.46-44.51-180.91,25.9-48.41,76.32-75.29,127.73-73.51l64.01-119.64c2.71-5.06,9.06-6.98,14.12-4.28l7.5,4.01c5.06,2.71,6.98,9.06,4.28,14.12l-59.05,110.37c5.59,1.49,11.14,3.35,16.61,5.58L389.36,31.94c.12-.22.25-.42.38-.62.22-.44.43-.88.66-1.31,14.79-27.65,49.2-38.07,76.85-23.28,27.65,14.79,38.07,49.2,23.28,76.85-14.79,27.65-49.2,38.07-76.85,23.28-8.76-4.69-15.79-11.35-20.84-19.14l-76.86,143.64c4.89,3.32,9.51,6.9,13.86,10.73l59.05-110.37c2.71-5.06,9.06-6.98,14.12-4.28l7.5,4.01c5.06,2.71,6.98,9.06,4.28,14.12l-64.01,119.64c30,41.78,35.62,98.63,9.72,147.05ZM415.19,38.83c-8.01,14.98-2.37,33.61,12.61,41.63,14.98,8.01,33.61,2.37,41.63-12.61,8.01-14.98,2.37-33.61-12.61-41.63-14.98-8.01-33.61-2.37-41.63,12.61ZM139.83,399.42l87.54-163.62c-35.9,3.38-69.47,24.11-87.75,58.28-18.28,34.17-16.9,73.61.21,105.34ZM172.72,436.84l104.03-194.43c-5.59-2.1-11.27-3.73-16.98-4.89l-100.53,187.9c4.14,4.11,8.64,7.94,13.49,11.42ZM90.66,591.25c8.79-16.42,2.6-36.85-13.82-45.64-16.42-8.79-36.85-2.6-45.64,13.82-8.79,16.42-2.6,36.85,13.82,45.64,16.42,8.79,36.85,2.6,45.64-13.82ZM198.62,450.7c5.59,2.1,11.27,3.73,16.98,4.89l100.53-187.9c-4.14-4.11-8.64-7.94-13.49-11.42l-104.03,194.43ZM335.75,399.02c18.28-34.17,16.9-73.61-.21-105.34l-87.54,163.62c35.9-3.38,69.47-24.11,87.75-58.28Z"/>
  </g>
</svg>